<svg width="640" height="480" viewBox="0 0 640 480" fill="none" xmlns="http://www.w3.org/2000/svg">
<rect width="640" height="480" rx="32" fill="#A6D8E3"/>
<ellipse rx="36.31" ry="18.3839" transform="matrix(-1 0 0 1 559.69 59.4732)" fill="white"/>
<ellipse rx="39.4871" ry="18.3839" transform="matrix(-1 0 0 1 508.402 49.3304)" fill="white"/>
<ellipse rx="41.3026" ry="19.9688" transform="matrix(-1 0 0 1 391.303 54.7188)" fill="white"/>
<ellipse rx="41.3026" ry="19.9688" transform="matrix(-1 0 0 1 428.52 61.058)" fill="white"/>
<ellipse rx="41.3026" ry="19.9688" transform="matrix(-1 0 0 1 473.908 65.4955)" fill="white"/>
<ellipse rx="41.3026" ry="19.9688" transform="matrix(-1 0 0 1 518.387 68.0312)" fill="white"/>
<ellipse rx="29.9557" ry="14.2634" transform="matrix(-1 0 0 1 469.823 41.4063)" fill="white"/>
<ellipse rx="24.9631" ry="14.2634" transform="matrix(-1 0 0 1 434.875 31.2634)" fill="white"/>
<ellipse rx="24.9631" ry="14.2634" transform="matrix(-1 0 0 1 414.904 41.4063)" fill="white"/>
</svg>
