<svg width="640" height="480" viewBox="0 0 640 480" fill="none" xmlns="http://www.w3.org/2000/svg">
<rect width="640" height="480" rx="32" fill="#EEF4F5"/>
<path d="M56 74L65.5263 100.25H46.4737L56 74Z" fill="#A2D0DA"/>
<ellipse cx="56" cy="105.5" rx="11" ry="10.5" fill="#A2D0DA"/>
<path d="M98 132L107.526 158.25H88.4737L98 132Z" fill="#A2D0DA"/>
<ellipse cx="98" cy="163.5" rx="11" ry="10.5" fill="#A2D0DA"/>
<path d="M165 27L174.526 53.25H155.474L165 27Z" fill="#A2D0DA"/>
<ellipse cx="165" cy="58.5" rx="11" ry="10.5" fill="#A2D0DA"/>
<path d="M207 164L216.526 190.25H197.474L207 164Z" fill="#A2D0DA"/>
<ellipse cx="207" cy="195.5" rx="11" ry="10.5" fill="#A2D0DA"/>
<path d="M232 206L241.526 232.25H222.474L232 206Z" fill="#A2D0DA"/>
<ellipse cx="232" cy="237.5" rx="11" ry="10.5" fill="#A2D0DA"/>
<path d="M87 325L96.5263 351.25H77.4737L87 325Z" fill="#A2D0DA"/>
<ellipse cx="87" cy="356.5" rx="11" ry="10.5" fill="#A2D0DA"/>
<path d="M120 360L129.526 386.25H110.474L120 360Z" fill="#A2D0DA"/>
<ellipse cx="120" cy="391.5" rx="11" ry="10.5" fill="#A2D0DA"/>
<path d="M387 84L396.526 110.25H377.474L387 84Z" fill="#A2D0DA"/>
<ellipse cx="387" cy="115.5" rx="11" ry="10.5" fill="#A2D0DA"/>
<path d="M417 126L426.526 152.25H407.474L417 126Z" fill="#A2D0DA"/>
<ellipse cx="417" cy="157.5" rx="11" ry="10.5" fill="#A2D0DA"/>
<path d="M399 182L408.526 208.25H389.474L399 182Z" fill="#A2D0DA"/>
<ellipse cx="399" cy="213.5" rx="11" ry="10.5" fill="#A2D0DA"/>
<path d="M326 315L335.526 341.25H316.474L326 315Z" fill="#A2D0DA"/>
<ellipse cx="326" cy="346.5" rx="11" ry="10.5" fill="#A2D0DA"/>
<path d="M357 360L366.526 386.25H347.474L357 360Z" fill="#A2D0DA"/>
<ellipse cx="357" cy="391.5" rx="11" ry="10.5" fill="#A2D0DA"/>
<path d="M584 20L593.526 46.25H574.474L584 20Z" fill="#A2D0DA"/>
<ellipse cx="584" cy="51.5" rx="11" ry="10.5" fill="#A2D0DA"/>
<path d="M545 69L554.526 95.25H535.474L545 69Z" fill="#A2D0DA"/>
<ellipse cx="545" cy="100.5" rx="11" ry="10.5" fill="#A2D0DA"/>
<path d="M584 273L593.526 299.25H574.474L584 273Z" fill="#A2D0DA"/>
<ellipse cx="584" cy="304.5" rx="11" ry="10.5" fill="#A2D0DA"/>
<path d="M545 318L554.526 344.25H535.474L545 318Z" fill="#A2D0DA"/>
<ellipse cx="545" cy="349.5" rx="11" ry="10.5" fill="#A2D0DA"/>
<path d="M473 385L482.526 411.25H463.474L473 385Z" fill="#A2D0DA"/>
<ellipse cx="473" cy="416.5" rx="11" ry="10.5" fill="#A2D0DA"/>
<path d="M501 423L510.526 449.25H491.474L501 423Z" fill="#A2D0DA"/>
<ellipse cx="501" cy="454.5" rx="11" ry="10.5" fill="#A2D0DA"/>
</svg>
