<svg width="640" height="480" viewBox="0 0 640 480" fill="none" xmlns="http://www.w3.org/2000/svg">
<rect width="640" height="480" rx="32" fill="#96A5C4"/>
<rect width="640" height="480" rx="32" fill="#747E91"/>
<ellipse cx="40.0959" cy="81" rx="34.0959" ry="29" fill="#B0ABAB"/>
<ellipse cx="88.2565" cy="65" rx="37.0793" ry="29" fill="#B0ABAB"/>
<ellipse cx="198.216" cy="73.5" rx="38.7841" ry="31.5" fill="#B0ABAB"/>
<ellipse cx="163.268" cy="83.5" rx="38.7841" ry="31.5" fill="#B0ABAB"/>
<ellipse cx="120.648" cy="90.5" rx="38.7841" ry="31.5" fill="#B0ABAB"/>
<ellipse cx="78.8801" cy="94.5" rx="38.7841" ry="31.5" fill="#B0ABAB"/>
<ellipse cx="124.483" cy="52.5" rx="28.1292" ry="22.5" fill="#B0ABAB"/>
<ellipse cx="157.301" cy="36.5" rx="23.441" ry="22.5" fill="#B0ABAB"/>
<ellipse cx="176.054" cy="52.5" rx="23.441" ry="22.5" fill="#B0ABAB"/>
<ellipse cx="39.6679" cy="232.83" rx="29.6679" ry="24.5982" fill="#C6BCBC"/>
<ellipse cx="81.5738" cy="219.259" rx="32.2638" ry="24.5982" fill="#C6BCBC"/>
<ellipse cx="177.253" cy="226.469" rx="33.7472" ry="26.7188" fill="#C6BCBC"/>
<ellipse cx="146.843" cy="234.951" rx="33.7472" ry="26.7188" fill="#C6BCBC"/>
<ellipse cx="109.758" cy="240.888" rx="33.7472" ry="26.7188" fill="#C6BCBC"/>
<ellipse cx="73.4151" cy="244.281" rx="33.7472" ry="26.7188" fill="#C6BCBC"/>
<ellipse cx="113.096" cy="208.656" rx="24.476" ry="19.0848" fill="#C6BCBC"/>
<ellipse cx="141.651" cy="195.085" rx="20.3967" ry="19.0848" fill="#C6BCBC"/>
<ellipse cx="157.969" cy="208.656" rx="20.3967" ry="19.0848" fill="#C6BCBC"/>
<ellipse rx="30.4059" ry="27.4464" transform="matrix(-1 0 0 1 264.594 271.411)" fill="#CCC5C5"/>
<ellipse rx="33.0664" ry="27.4464" transform="matrix(-1 0 0 1 221.646 256.268)" fill="#CCC5C5"/>
<ellipse rx="34.5867" ry="29.8125" transform="matrix(-1 0 0 1 123.587 264.312)" fill="#CCC5C5"/>
<ellipse rx="34.5867" ry="29.8125" transform="matrix(-1 0 0 1 154.753 273.777)" fill="#CCC5C5"/>
<ellipse rx="34.5867" ry="29.8125" transform="matrix(-1 0 0 1 192.76 280.402)" fill="#CCC5C5"/>
<ellipse rx="34.5867" ry="29.8125" transform="matrix(-1 0 0 1 230.008 284.188)" fill="#CCC5C5"/>
<ellipse rx="25.0849" ry="21.2946" transform="matrix(-1 0 0 1 189.34 244.438)" fill="#CCC5C5"/>
<ellipse rx="20.9041" ry="21.2946" transform="matrix(-1 0 0 1 160.074 229.295)" fill="#CCC5C5"/>
<ellipse rx="20.9041" ry="21.2946" transform="matrix(-1 0 0 1 143.35 244.438)" fill="#CCC5C5"/>
<ellipse rx="43.3948" ry="41.6875" transform="matrix(-1 0 0 1 366.605 110.312)" fill="#B9B3B3"/>
<ellipse rx="47.1919" ry="41.6875" transform="matrix(-1 0 0 1 305.31 87.3125)" fill="#B9B3B3"/>
<ellipse rx="49.3616" ry="45.2812" transform="matrix(-1 0 0 1 165.362 99.5312)" fill="#B9B3B3"/>
<ellipse rx="49.3616" ry="45.2812" transform="matrix(-1 0 0 1 209.841 113.906)" fill="#B9B3B3"/>
<ellipse rx="49.3616" ry="45.2812" transform="matrix(-1 0 0 1 264.085 123.969)" fill="#B9B3B3"/>
<ellipse rx="49.3616" ry="45.2812" transform="matrix(-1 0 0 1 317.243 129.719)" fill="#B9B3B3"/>
<ellipse rx="35.8007" ry="32.3438" transform="matrix(-1 0 0 1 259.203 69.3438)" fill="#B9B3B3"/>
<ellipse rx="29.834" ry="32.3438" transform="matrix(-1 0 0 1 217.436 46.3438)" fill="#B9B3B3"/>
<ellipse rx="29.834" ry="32.3438" transform="matrix(-1 0 0 1 193.568 69.3438)" fill="#B9B3B3"/>
<ellipse cx="301.018" cy="100.321" rx="45.0184" ry="40.3929" fill="#C3BFBF"/>
<ellipse cx="364.607" cy="78.0357" rx="48.9576" ry="40.3929" fill="#C3BFBF"/>
<ellipse cx="509.791" cy="89.875" rx="51.2085" ry="43.875" fill="#C3BFBF"/>
<ellipse cx="463.648" cy="103.804" rx="51.2085" ry="43.875" fill="#C3BFBF"/>
<ellipse cx="407.375" cy="113.554" rx="51.2085" ry="43.875" fill="#C3BFBF"/>
<ellipse cx="352.227" cy="119.125" rx="51.2085" ry="43.875" fill="#C3BFBF"/>
<ellipse cx="412.439" cy="60.625" rx="37.1402" ry="31.3393" fill="#C3BFBF"/>
<ellipse cx="455.769" cy="38.3393" rx="30.9502" ry="31.3393" fill="#C3BFBF"/>
<ellipse cx="480.53" cy="60.625" rx="30.9502" ry="31.3393" fill="#C3BFBF"/>
<ellipse rx="37.3432" ry="40.3929" transform="matrix(-1 0 0 1 592.657 152.321)" fill="#D6CECE"/>
<ellipse rx="40.6107" ry="40.3929" transform="matrix(-1 0 0 1 539.91 130.036)" fill="#D6CECE"/>
<ellipse rx="42.4779" ry="43.875" transform="matrix(-1 0 0 1 419.478 141.875)" fill="#D6CECE"/>
<ellipse rx="42.4779" ry="43.875" transform="matrix(-1 0 0 1 457.755 155.804)" fill="#D6CECE"/>
<ellipse rx="42.4779" ry="43.875" transform="matrix(-1 0 0 1 504.434 165.554)" fill="#D6CECE"/>
<ellipse rx="42.4779" ry="43.875" transform="matrix(-1 0 0 1 550.179 171.125)" fill="#D6CECE"/>
<ellipse rx="30.8081" ry="31.3393" transform="matrix(-1 0 0 1 500.233 112.625)" fill="#D6CECE"/>
<ellipse rx="25.6734" ry="31.3393" transform="matrix(-1 0 0 1 464.29 90.3393)" fill="#D6CECE"/>
<ellipse rx="25.6734" ry="31.3393" transform="matrix(-1 0 0 1 443.751 112.625)" fill="#D6CECE"/>
<ellipse rx="40" ry="38.0625" transform="matrix(-1 0 0 1 583 396.938)" fill="#C3BFBF"/>
<ellipse rx="43.5" ry="38.0625" transform="matrix(-1 0 0 1 526.5 375.938)" fill="#C3BFBF"/>
<ellipse rx="45.5" ry="41.3438" transform="matrix(-1 0 0 1 397.5 387.094)" fill="#C3BFBF"/>
<ellipse rx="45.5" ry="41.3438" transform="matrix(-1 0 0 1 438.5 400.219)" fill="#C3BFBF"/>
<ellipse rx="45.5" ry="41.3438" transform="matrix(-1 0 0 1 488.5 409.406)" fill="#C3BFBF"/>
<ellipse rx="45.5" ry="41.3438" transform="matrix(-1 0 0 1 537.5 414.656)" fill="#C3BFBF"/>
<ellipse rx="33" ry="29.5312" transform="matrix(-1 0 0 1 484 359.531)" fill="#C3BFBF"/>
<ellipse rx="27.5" ry="29.5312" transform="matrix(-1 0 0 1 445.5 338.531)" fill="#C3BFBF"/>
<ellipse rx="27.5" ry="29.5312" transform="matrix(-1 0 0 1 423.5 359.531)" fill="#C3BFBF"/>
<ellipse cx="210.542" cy="412.562" rx="43.5424" ry="34.4375" fill="#D2CCCC"/>
<ellipse cx="272.046" cy="393.562" rx="47.3524" ry="34.4375" fill="#D2CCCC"/>
<ellipse cx="412.47" cy="403.656" rx="49.5295" ry="37.4062" fill="#D2CCCC"/>
<ellipse cx="367.84" cy="415.531" rx="49.5295" ry="37.4062" fill="#D2CCCC"/>
<ellipse cx="313.411" cy="423.844" rx="49.5295" ry="37.4062" fill="#D2CCCC"/>
<ellipse cx="260.072" cy="428.594" rx="49.5295" ry="37.4062" fill="#D2CCCC"/>
<ellipse cx="318.31" cy="378.719" rx="35.9225" ry="26.7188" fill="#D2CCCC"/>
<ellipse cx="360.219" cy="359.719" rx="29.9354" ry="26.7188" fill="#D2CCCC"/>
<ellipse cx="384.168" cy="378.719" rx="29.9354" ry="26.7188" fill="#D2CCCC"/>
</svg>
