<svg width="62" height="116" viewBox="0 0 62 116" fill="none" xmlns="http://www.w3.org/2000/svg">
<path d="M57.5625 100.976C54.8932 101.757 52.4437 102.147 50.2139 102.147C47.0563 102.147 44.2406 101.366 41.7666 99.8037C39.3089 98.2412 37.3802 95.8893 35.9805 92.748C34.5807 89.5905 33.8809 86.026 33.8809 82.0547C33.8809 78.1322 34.5645 74.6084 35.9316 71.4834C37.2988 68.3584 39.2275 65.9902 41.7178 64.3789C44.208 62.7676 46.9424 61.9619 49.9209 61.9619C52.167 61.9619 54.7061 62.4909 57.5381 63.5488V68.041C54.9176 66.5273 52.3135 65.7705 49.7256 65.7705C47.7725 65.7705 45.9821 66.4378 44.3545 67.7725C42.7432 69.1071 41.4411 71.0684 40.4482 73.6562C39.4717 76.2279 38.9834 79.0436 38.9834 82.1035C38.9834 86.2051 39.9193 89.9404 41.791 93.3096C43.6628 96.6787 46.6169 98.3633 50.6533 98.3633C51.1742 98.3633 51.8333 98.3226 52.6309 98.2412V86.0342H48.8467V82.25H57.5625V100.976Z" fill="black"/>
<path d="M8.56934 35.9111V52H3.6377V14.1094H13.7695C17.0736 14.1094 19.5068 14.4512 21.0693 15.1348C22.6318 15.8021 23.8363 16.8193 24.6826 18.1865C25.5452 19.5537 25.9766 21.0267 25.9766 22.6055C25.9766 24.0703 25.6917 25.5433 25.1221 27.0244C24.5524 28.5055 23.763 29.832 22.7539 31.0039C21.7611 32.1595 20.3206 33.2581 18.4326 34.2998L29.3945 52H23.5352L13.501 35.9111H8.56934ZM8.56934 32.1025H15.4785C17.0247 31.2562 18.1722 30.3936 18.9209 29.5146C19.6859 28.6357 20.2637 27.6999 20.6543 26.707C21.0449 25.7142 21.2402 24.7214 21.2402 23.7285C21.2402 21.9544 20.5892 20.5465 19.2871 19.5049C18.0013 18.4469 15.6576 17.918 12.2559 17.918H8.56934V32.1025Z" fill="black"/>
</svg>
