<svg width="300" height="100" viewBox="0 0 203 68" fill="none" xmlns="http://www.w3.org/2000/svg">
<path d="M5.1416 21.3467V31H2.18262V8.26562H8.26172C10.2441 8.26562 11.7041 8.4707 12.6416 8.88086C13.5791 9.28125 14.3018 9.8916 14.8096 10.7119C15.3271 11.5322 15.5859 12.416 15.5859 13.3633C15.5859 14.2422 15.415 15.126 15.0732 16.0146C14.7314 16.9033 14.2578 17.6992 13.6523 18.4023C13.0566 19.0957 12.1924 19.7549 11.0596 20.3799L17.6367 31H14.1211L8.10059 21.3467H5.1416ZM5.1416 19.0615H9.28711C10.2148 18.5537 10.9033 18.0361 11.3525 17.5088C11.8115 16.9814 12.1582 16.4199 12.3926 15.8242C12.627 15.2285 12.7441 14.6328 12.7441 14.0371C12.7441 12.9727 12.3535 12.1279 11.5723 11.5029C10.8008 10.8682 9.39453 10.5508 7.35352 10.5508H5.1416V19.0615ZM31.04 27.3232C30.21 28.6904 29.209 29.7207 28.0371 30.4141C26.875 31.1074 25.8057 31.4541 24.8291 31.4541C23.4619 31.4541 22.2314 30.8633 21.1377 29.6816C20.0537 28.5 19.5117 26.708 19.5117 24.3057C19.5117 22.4111 19.873 20.7217 20.5957 19.2373C21.3184 17.7432 22.2852 16.5664 23.4961 15.707C24.707 14.8379 26.2061 14.4033 27.9932 14.4033C28.5107 14.4033 29.292 14.457 30.3369 14.5645C30.4932 14.584 30.7275 14.6084 31.04 14.6377H33.7793V26.1953C33.7793 28.168 33.9844 29.7695 34.3945 31H31.5527C31.3379 30.1016 31.167 28.876 31.04 27.3232ZM31.04 24.0859V17.0693C30.0732 16.8154 29.1748 16.6885 28.3447 16.6885C26.665 16.6885 25.2637 17.3379 24.1406 18.6367C23.0273 19.9355 22.4707 21.7031 22.4707 23.9395C22.4707 25.5605 22.7734 26.7861 23.3789 27.6162C23.9941 28.4365 24.6924 28.8467 25.4736 28.8467C26.3232 28.8467 27.2607 28.417 28.2861 27.5576C29.3115 26.6982 30.2295 25.541 31.04 24.0859ZM38.3057 31V14.6377H41.0303V18.2119C41.8115 16.9521 42.7539 15.9658 43.8574 15.2529C44.9609 14.54 46.0645 14.1836 47.168 14.1836C48.1348 14.1836 49.0137 14.4424 49.8047 14.96C50.5957 15.4678 51.1475 16.1367 51.46 16.9668C51.7822 17.7969 51.9434 19.4277 51.9434 21.8594V31H49.2188V21.5225C49.2188 19.9502 49.1406 18.915 48.9844 18.417C48.8379 17.9092 48.5596 17.4941 48.1494 17.1719C47.749 16.8496 47.3096 16.6885 46.8311 16.6885C45.874 16.6885 44.8438 17.1426 43.7402 18.0508C42.6465 18.959 41.7432 20.0967 41.0303 21.4639V31H38.3057ZM67.251 27.3232C66.4209 28.6904 65.4199 29.7207 64.248 30.4141C63.0859 31.1074 62.0166 31.4541 61.04 31.4541C59.6729 31.4541 58.4424 30.8633 57.3486 29.6816C56.2646 28.5 55.7227 26.708 55.7227 24.3057C55.7227 22.4111 56.084 20.7217 56.8066 19.2373C57.5293 17.7432 58.4961 16.5664 59.707 15.707C60.918 14.8379 62.417 14.4033 64.2041 14.4033C64.7217 14.4033 65.5029 14.457 66.5479 14.5645C66.7041 14.584 66.9385 14.6084 67.251 14.6377V7.35742H69.9902V31H67.251V27.3232ZM67.251 24.0859V17.0693C66.2842 16.8154 65.3857 16.6885 64.5557 16.6885C62.876 16.6885 61.4746 17.3379 60.3516 18.6367C59.2383 19.9355 58.6816 21.7031 58.6816 23.9395C58.6816 25.5605 58.9844 26.7861 59.5898 27.6162C60.2051 28.4365 60.9033 28.8467 61.6846 28.8467C62.5342 28.8467 63.4717 28.417 64.4971 27.5576C65.5225 26.6982 66.4404 25.541 67.251 24.0859ZM81.0791 31.4541C78.7354 31.4541 76.8604 30.6387 75.4541 29.0078C74.0479 27.3672 73.3447 25.3018 73.3447 22.8115C73.3447 20.3213 74.0479 18.2607 75.4541 16.6299C76.8604 14.999 78.7354 14.1836 81.0791 14.1836C83.4131 14.1836 85.2832 14.999 86.6895 16.6299C88.0957 18.2607 88.7988 20.3213 88.7988 22.8115C88.7988 25.3018 88.0957 27.3672 86.6895 29.0078C85.2832 30.6387 83.4131 31.4541 81.0791 31.4541ZM81.0791 29.1836C82.5342 29.1836 83.6914 28.6172 84.5508 27.4844C85.4102 26.3516 85.8398 24.7939 85.8398 22.8115C85.8398 20.8389 85.4102 19.2861 84.5508 18.1533C83.6914 17.0205 82.5342 16.4541 81.0791 16.4541C79.6143 16.4541 78.4521 17.0205 77.5928 18.1533C76.7334 19.2861 76.3037 20.8389 76.3037 22.8115C76.3037 24.7939 76.7334 26.3516 77.5928 27.4844C78.4521 28.6172 79.6143 29.1836 81.0791 29.1836ZM91.1279 31V14.6377H93.5156V18.3877C94.2676 16.7959 94.9658 15.6973 95.6104 15.0918C96.2646 14.4863 96.9238 14.1836 97.5879 14.1836C98.3789 14.1836 99.0137 14.4961 99.4922 15.1211C99.9805 15.7363 100.225 16.6152 100.225 17.7578V18.6367C100.547 17.6406 100.933 16.835 101.382 16.2197C101.841 15.5947 102.314 15.1016 102.803 14.7402C103.291 14.3691 103.853 14.1836 104.487 14.1836C105.19 14.1836 105.791 14.4814 106.289 15.0771C106.787 15.6729 107.036 16.8594 107.036 18.6367V31H104.648V19.8232C104.648 18.9053 104.619 18.2803 104.561 17.9482C104.502 17.6064 104.385 17.3477 104.209 17.1719C104.033 16.9961 103.843 16.9082 103.638 16.9082C103.13 16.9082 102.583 17.2988 101.997 18.0801C101.421 18.8516 100.83 20.1357 100.225 21.9326V31H97.9395V19.8379C97.9395 18.3926 97.7979 17.543 97.5146 17.2891C97.2314 17.0352 96.9775 16.9082 96.7529 16.9082C96.2549 16.9082 95.7178 17.3428 95.1416 18.2119C94.5752 19.0811 94.0332 20.1943 93.5156 21.5518V31H91.1279Z" fill="black"/>
<path d="M55.9375 58.9854C54.3359 59.4541 52.8662 59.6885 51.5283 59.6885C49.6338 59.6885 47.9443 59.2197 46.46 58.2822C44.9854 57.3447 43.8281 55.9336 42.9883 54.0488C42.1484 52.1543 41.7285 50.0156 41.7285 47.6328C41.7285 45.2793 42.1387 43.165 42.959 41.29C43.7793 39.415 44.9365 37.9941 46.4307 37.0273C47.9248 36.0605 49.5654 35.5771 51.3525 35.5771C52.7002 35.5771 54.2236 35.8945 55.9229 36.5293V39.2246C54.3506 38.3164 52.7881 37.8623 51.2354 37.8623C50.0635 37.8623 48.9893 38.2627 48.0127 39.0635C47.0459 39.8643 46.2646 41.041 45.6689 42.5938C45.083 44.1367 44.79 45.8262 44.79 47.6621C44.79 50.123 45.3516 52.3643 46.4746 54.3857C47.5977 56.4072 49.3701 57.418 51.792 57.418C52.1045 57.418 52.5 57.3936 52.9785 57.3447V50.0205H50.708V47.75H55.9375V58.9854ZM73.8965 57.916C71.7188 58.9512 69.6582 59.4688 67.7148 59.4688C66.2402 59.4688 64.9219 59.1025 63.7598 58.3701C62.5977 57.6377 61.665 56.5928 60.9619 55.2354C60.2686 53.8682 59.9219 52.4082 59.9219 50.8555C59.9219 49.3613 60.2539 47.9258 60.918 46.5488C61.582 45.1719 62.5098 44.1025 63.7012 43.3408C64.8926 42.5693 66.2207 42.1836 67.6855 42.1836C69.6289 42.1836 71.1865 42.877 72.3584 44.2637C73.54 45.6504 74.1309 47.7891 74.1309 50.6797V51.2656H62.8516C62.8516 52.3984 63.0859 53.4336 63.5547 54.3711C64.0332 55.3086 64.6582 56.0117 65.4297 56.4805C66.2012 56.9492 67.0801 57.1836 68.0664 57.1836C69.8242 57.1836 71.7676 56.5977 73.8965 55.4258V57.916ZM63.0127 49.2295H71.1719V48.834C71.1719 47.4961 70.8447 46.4316 70.1904 45.6406C69.5361 44.8496 68.6621 44.4541 67.5684 44.4541C66.4648 44.4541 65.5078 44.8594 64.6973 45.6699C63.8965 46.4707 63.335 47.6572 63.0127 49.2295ZM78.3057 59V42.6377H81.0303V46.2119C81.8115 44.9521 82.7539 43.9658 83.8574 43.2529C84.9609 42.54 86.0645 42.1836 87.168 42.1836C88.1348 42.1836 89.0137 42.4424 89.8047 42.96C90.5957 43.4678 91.1475 44.1367 91.46 44.9668C91.7822 45.7969 91.9434 47.4277 91.9434 49.8594V59H89.2188V49.5225C89.2188 47.9502 89.1406 46.915 88.9844 46.417C88.8379 45.9092 88.5596 45.4941 88.1494 45.1719C87.749 44.8496 87.3096 44.6885 86.8311 44.6885C85.874 44.6885 84.8438 45.1426 83.7402 46.0508C82.6465 46.959 81.7432 48.0967 81.0303 49.4639V59H78.3057ZM109.932 57.916C107.754 58.9512 105.693 59.4688 103.75 59.4688C102.275 59.4688 100.957 59.1025 99.7949 58.3701C98.6328 57.6377 97.7002 56.5928 96.9971 55.2354C96.3037 53.8682 95.957 52.4082 95.957 50.8555C95.957 49.3613 96.2891 47.9258 96.9531 46.5488C97.6172 45.1719 98.5449 44.1025 99.7363 43.3408C100.928 42.5693 102.256 42.1836 103.721 42.1836C105.664 42.1836 107.222 42.877 108.394 44.2637C109.575 45.6504 110.166 47.7891 110.166 50.6797V51.2656H98.8867C98.8867 52.3984 99.1211 53.4336 99.5898 54.3711C100.068 55.3086 100.693 56.0117 101.465 56.4805C102.236 56.9492 103.115 57.1836 104.102 57.1836C105.859 57.1836 107.803 56.5977 109.932 55.4258V57.916ZM99.0479 49.2295H107.207V48.834C107.207 47.4961 106.88 46.4316 106.226 45.6406C105.571 44.8496 104.697 44.4541 103.604 44.4541C102.5 44.4541 101.543 44.8594 100.732 45.6699C99.9316 46.4707 99.3701 47.6572 99.0479 49.2295ZM115.732 59V42.6377H118.457V46.2119C119.307 44.8643 120.278 43.8584 121.372 43.1943C122.476 42.5205 123.701 42.1836 125.049 42.1836C126.035 42.1836 127.021 42.335 128.008 42.6377V48.541H125.386V44.8057C124.927 44.7275 124.565 44.6885 124.302 44.6885C123.286 44.6885 122.29 45.0889 121.313 45.8896C120.337 46.6904 119.385 47.8916 118.457 49.4932V59H115.732ZM143.11 55.3232C142.28 56.6904 141.279 57.7207 140.107 58.4141C138.945 59.1074 137.876 59.4541 136.899 59.4541C135.532 59.4541 134.302 58.8633 133.208 57.6816C132.124 56.5 131.582 54.708 131.582 52.3057C131.582 50.4111 131.943 48.7217 132.666 47.2373C133.389 45.7432 134.355 44.5664 135.566 43.707C136.777 42.8379 138.276 42.4033 140.063 42.4033C140.581 42.4033 141.362 42.457 142.407 42.5645C142.563 42.584 142.798 42.6084 143.11 42.6377H145.85V54.1953C145.85 56.168 146.055 57.7695 146.465 59H143.623C143.408 58.1016 143.237 56.876 143.11 55.3232ZM143.11 52.0859V45.0693C142.144 44.8154 141.245 44.6885 140.415 44.6885C138.735 44.6885 137.334 45.3379 136.211 46.6367C135.098 47.9355 134.541 49.7031 134.541 51.9395C134.541 53.5605 134.844 54.7861 135.449 55.6162C136.064 56.4365 136.763 56.8467 137.544 56.8467C138.394 56.8467 139.331 56.417 140.356 55.5576C141.382 54.6982 142.3 53.541 143.11 52.0859ZM164.058 58.3408C162.778 58.8779 161.851 59.1953 161.274 59.293C160.698 59.4004 160.142 59.4541 159.604 59.4541C158.462 59.4541 157.417 59.2344 156.47 58.7949C155.522 58.3555 154.805 57.7061 154.316 56.8467C153.838 55.9873 153.599 54.6592 153.599 52.8623V46.2705H149.512V44H153.599V37.4082H156.323V44H163.604V46.2705H156.323V52.8184C156.323 54.1367 156.479 55.0693 156.792 55.6162C157.104 56.1533 157.52 56.5488 158.037 56.8027C158.564 57.0566 159.185 57.1836 159.897 57.1836C161.216 57.1836 162.603 56.7686 164.058 55.9385V58.3408ZM175.132 59.4541C172.788 59.4541 170.913 58.6387 169.507 57.0078C168.101 55.3672 167.397 53.3018 167.397 50.8115C167.397 48.3213 168.101 46.2607 169.507 44.6299C170.913 42.999 172.788 42.1836 175.132 42.1836C177.466 42.1836 179.336 42.999 180.742 44.6299C182.148 46.2607 182.852 48.3213 182.852 50.8115C182.852 53.3018 182.148 55.3672 180.742 57.0078C179.336 58.6387 177.466 59.4541 175.132 59.4541ZM175.132 57.1836C176.587 57.1836 177.744 56.6172 178.604 55.4844C179.463 54.3516 179.893 52.7939 179.893 50.8115C179.893 48.8389 179.463 47.2861 178.604 46.1533C177.744 45.0205 176.587 44.4541 175.132 44.4541C173.667 44.4541 172.505 45.0205 171.646 46.1533C170.786 47.2861 170.356 48.8389 170.356 50.8115C170.356 52.7939 170.786 54.3516 171.646 55.4844C172.505 56.6172 173.667 57.1836 175.132 57.1836ZM187.803 59V42.6377H190.527V46.2119C191.377 44.8643 192.349 43.8584 193.442 43.1943C194.546 42.5205 195.771 42.1836 197.119 42.1836C198.105 42.1836 199.092 42.335 200.078 42.6377V48.541H197.456V44.8057C196.997 44.7275 196.636 44.6885 196.372 44.6885C195.356 44.6885 194.36 45.0889 193.384 45.8896C192.407 46.6904 191.455 47.8916 190.527 49.4932V59H187.803Z" fill="black"/>
</svg>

