<svg width="403" height="403" viewBox="0 0 403 403" fill="none" xmlns="http://www.w3.org/2000/svg">
<rect width="403" height="403" fill="white"/>
<rect width="403" height="142" fill="#F91717"/>
<rect y="326" width="403" height="77" fill="#F91717"/>
<path d="M143.902 67.7794V37.4669H147.848V50.5138H159.059V37.4669H162.984V67.7794H159.059V53.5411H147.848V67.7794H143.902ZM185.797 64.4396V67.7794H169.43V37.4669H185.484V40.5138H173.375V50.8068H184.273V53.8341H173.375V64.4396H185.797ZM210.133 64.4396V67.7794H193.766V37.4669H197.711V64.4396H210.133ZM234.156 64.4396V67.7794H217.789V37.4669H221.734V64.4396H234.156ZM249.527 68.6974C246.09 68.6974 243.46 67.2521 241.637 64.3615C239.827 61.4578 238.922 57.545 238.922 52.6232C238.922 47.7143 239.827 43.8146 241.637 40.924C243.46 38.0203 246.09 36.5685 249.527 36.5685C252.978 36.5685 255.608 38.0203 257.418 40.924C259.228 43.8146 260.133 47.7143 260.133 52.6232C260.133 57.545 259.228 61.4578 257.418 64.3615C255.608 67.2521 252.978 68.6974 249.527 68.6974ZM249.527 65.6505C251.428 65.6505 253.01 64.5763 254.273 62.4279C255.549 60.2664 256.187 56.9982 256.187 52.6232C256.187 48.2482 255.549 44.9865 254.273 42.838C253.01 40.6766 251.428 39.5958 249.527 39.5958C247.626 39.5958 246.038 40.6766 244.762 42.838C243.499 44.9865 242.867 48.2482 242.867 52.6232C242.867 56.9982 243.499 60.2664 244.762 62.4279C246.038 64.5763 247.626 65.6505 249.527 65.6505Z" fill="white"/>
<path d="M111.443 110V93.6377H113.831V97.3877C114.583 95.7959 115.281 94.6973 115.926 94.0918C116.58 93.4863 117.239 93.1836 117.903 93.1836C118.694 93.1836 119.329 93.4961 119.808 94.1211C120.296 94.7363 120.54 95.6152 120.54 96.7578V97.6367C120.862 96.6406 121.248 95.835 121.697 95.2197C122.156 94.5947 122.63 94.1016 123.118 93.7402C123.606 93.3691 124.168 93.1836 124.803 93.1836C125.506 93.1836 126.106 93.4814 126.604 94.0771C127.103 94.6729 127.352 95.8594 127.352 97.6367V110H124.964V98.8232C124.964 97.9053 124.935 97.2803 124.876 96.9482C124.817 96.6064 124.7 96.3477 124.524 96.1719C124.349 95.9961 124.158 95.9082 123.953 95.9082C123.445 95.9082 122.898 96.2988 122.312 97.0801C121.736 97.8516 121.146 99.1357 120.54 100.933V110H118.255V98.8379C118.255 97.3926 118.113 96.543 117.83 96.2891C117.547 96.0352 117.293 95.9082 117.068 95.9082C116.57 95.9082 116.033 96.3428 115.457 97.2119C114.891 98.0811 114.349 99.1943 113.831 100.552V110H111.443ZM136.712 109.341L129.153 93.6377H132.156L138.177 105.913L143.216 93.6377H145.955L139.612 108.843C138.274 112.056 137 114.189 135.789 115.244C134.588 116.299 133.03 116.826 131.116 116.826C130.286 116.826 129.544 116.753 128.89 116.606V114.204C129.642 114.438 130.359 114.556 131.043 114.556C131.922 114.556 132.703 114.385 133.387 114.043C134.07 113.701 134.695 113.096 135.262 112.227C135.828 111.357 136.229 110.605 136.463 109.971L136.712 109.341ZM166.727 110V93.6377H169.451V97.2119C170.232 95.9521 171.175 94.9658 172.278 94.2529C173.382 93.54 174.485 93.1836 175.589 93.1836C176.556 93.1836 177.435 93.4424 178.226 93.96C179.017 94.4678 179.568 95.1367 179.881 95.9668C180.203 96.7969 180.364 98.4277 180.364 100.859V110H177.64V100.522C177.64 98.9502 177.562 97.915 177.405 97.417C177.259 96.9092 176.98 96.4941 176.57 96.1719C176.17 95.8496 175.73 95.6885 175.252 95.6885C174.295 95.6885 173.265 96.1426 172.161 97.0508C171.067 97.959 170.164 99.0967 169.451 100.464V110H166.727ZM195.496 106.323C194.666 107.69 193.665 108.721 192.493 109.414C191.331 110.107 190.262 110.454 189.285 110.454C187.918 110.454 186.688 109.863 185.594 108.682C184.51 107.5 183.968 105.708 183.968 103.306C183.968 101.411 184.329 99.7217 185.052 98.2373C185.774 96.7432 186.741 95.5664 187.952 94.707C189.163 93.8379 190.662 93.4033 192.449 93.4033C192.967 93.4033 193.748 93.457 194.793 93.5645C194.949 93.584 195.184 93.6084 195.496 93.6377H198.235V105.195C198.235 107.168 198.44 108.77 198.851 110H196.009C195.794 109.102 195.623 107.876 195.496 106.323ZM195.496 103.086V96.0693C194.529 95.8154 193.631 95.6885 192.801 95.6885C191.121 95.6885 189.72 96.3379 188.597 97.6367C187.483 98.9355 186.927 100.703 186.927 102.939C186.927 104.561 187.229 105.786 187.835 106.616C188.45 107.437 189.148 107.847 189.93 107.847C190.779 107.847 191.717 107.417 192.742 106.558C193.768 105.698 194.686 104.541 195.496 103.086ZM201.531 110V93.6377H203.919V97.3877C204.671 95.7959 205.369 94.6973 206.014 94.0918C206.668 93.4863 207.327 93.1836 207.991 93.1836C208.782 93.1836 209.417 93.4961 209.896 94.1211C210.384 94.7363 210.628 95.6152 210.628 96.7578V97.6367C210.95 96.6406 211.336 95.835 211.785 95.2197C212.244 94.5947 212.718 94.1016 213.206 93.7402C213.694 93.3691 214.256 93.1836 214.891 93.1836C215.594 93.1836 216.194 93.4814 216.692 94.0771C217.19 94.6729 217.439 95.8594 217.439 97.6367V110H215.052V98.8232C215.052 97.9053 215.022 97.2803 214.964 96.9482C214.905 96.6064 214.788 96.3477 214.612 96.1719C214.437 95.9961 214.246 95.9082 214.041 95.9082C213.533 95.9082 212.986 96.2988 212.4 97.0801C211.824 97.8516 211.233 99.1357 210.628 100.933V110H208.343V98.8379C208.343 97.3926 208.201 96.543 207.918 96.2891C207.635 96.0352 207.381 95.9082 207.156 95.9082C206.658 95.9082 206.121 96.3428 205.545 97.2119C204.979 98.0811 204.437 99.1943 203.919 100.552V110H201.531ZM234.388 108.916C232.21 109.951 230.149 110.469 228.206 110.469C226.731 110.469 225.413 110.103 224.251 109.37C223.089 108.638 222.156 107.593 221.453 106.235C220.76 104.868 220.413 103.408 220.413 101.855C220.413 100.361 220.745 98.9258 221.409 97.5488C222.073 96.1719 223.001 95.1025 224.192 94.3408C225.384 93.5693 226.712 93.1836 228.177 93.1836C230.12 93.1836 231.678 93.877 232.85 95.2637C234.031 96.6504 234.622 98.7891 234.622 101.68V102.266H223.343C223.343 103.398 223.577 104.434 224.046 105.371C224.524 106.309 225.149 107.012 225.921 107.48C226.692 107.949 227.571 108.184 228.558 108.184C230.315 108.184 232.259 107.598 234.388 106.426V108.916ZM223.504 100.229H231.663V99.834C231.663 98.4961 231.336 97.4316 230.682 96.6406C230.027 95.8496 229.153 95.4541 228.06 95.4541C226.956 95.4541 225.999 95.8594 225.188 96.6699C224.388 97.4707 223.826 98.6572 223.504 100.229ZM261.399 110V95.9082H256.858V93.6377H264.124V107.729H268.68V110H261.399ZM260.945 87.7344C260.945 87.1191 261.155 86.6602 261.575 86.3574C261.995 86.0547 262.391 85.9033 262.762 85.9033C263.143 85.9033 263.543 86.0547 263.963 86.3574C264.383 86.6602 264.593 87.1191 264.593 87.7344C264.593 88.3398 264.383 88.7939 263.963 89.0967C263.543 89.3994 263.143 89.5508 262.762 89.5508C262.391 89.5508 261.995 89.3994 261.575 89.0967C261.155 88.7939 260.945 88.3398 260.945 87.7344ZM275.022 109.136V106.25C276.116 106.963 277.273 107.466 278.494 107.759C279.715 108.042 280.75 108.184 281.6 108.184C282.977 108.184 283.968 107.964 284.573 107.524C285.179 107.075 285.481 106.519 285.481 105.854C285.481 105.415 285.34 105.039 285.057 104.727C284.773 104.414 284.07 104.028 282.947 103.569L282.01 103.188L280.12 102.441C278.089 101.65 276.81 100.918 276.282 100.244C275.745 99.5801 275.477 98.7695 275.477 97.8125C275.477 96.4648 275.994 95.3564 277.029 94.4873C278.074 93.6182 279.764 93.1836 282.098 93.1836C283.846 93.1836 285.501 93.4375 287.063 93.9453V96.4209C285.267 95.7764 283.577 95.4541 281.995 95.4541C280.843 95.4541 279.939 95.6592 279.285 96.0693C278.641 96.4697 278.318 96.9727 278.318 97.5781C278.318 98.1641 278.602 98.6328 279.168 98.9844C279.725 99.3359 280.633 99.7412 281.893 100.2L283.738 100.874C285.428 101.489 286.614 102.158 287.298 102.881C287.981 103.604 288.323 104.507 288.323 105.591C288.323 107.007 287.776 108.174 286.683 109.092C285.599 110 283.86 110.454 281.468 110.454C279.378 110.454 277.229 110.015 275.022 109.136ZM299.573 110.688C298.919 110.688 298.357 110.454 297.889 109.985C297.42 109.517 297.186 108.955 297.186 108.301C297.186 107.637 297.42 107.075 297.889 106.616C298.367 106.147 298.929 105.913 299.573 105.913C300.218 105.913 300.774 106.147 301.243 106.616C301.722 107.075 301.961 107.637 301.961 108.301C301.961 108.955 301.727 109.517 301.258 109.985C300.789 110.454 300.228 110.688 299.573 110.688ZM299.573 97.959C298.919 97.959 298.357 97.7246 297.889 97.2559C297.42 96.7871 297.186 96.2256 297.186 95.5713C297.186 94.9072 297.42 94.3457 297.889 93.8867C298.367 93.418 298.929 93.1836 299.573 93.1836C300.218 93.1836 300.774 93.418 301.243 93.8867C301.722 94.3457 301.961 94.9072 301.961 95.5713C301.961 96.2256 301.727 96.7871 301.258 97.2559C300.789 97.7246 300.228 97.959 299.573 97.959Z" fill="white"/>
</svg>


