<svg width="640" height="480" viewBox="0 0 640 480" fill="none" xmlns="http://www.w3.org/2000/svg">
<rect width="640" height="480" rx="32" fill="#BADBE2"/>
<rect width="3.51463" height="25.6943" transform="matrix(0.967565 0.252623 -0.269927 0.962881 62.356 116.133)" fill="white"/>
<rect width="3.51463" height="25.6943" transform="matrix(0.967565 0.252623 -0.269927 0.962881 62.356 116.133)" fill="white"/>
<rect width="3.51463" height="25.6943" transform="matrix(0.967565 0.252623 -0.269927 0.962881 62.356 116.133)" fill="white"/>
<rect width="3.58525" height="25.1882" transform="matrix(0.269927 -0.962881 0.967565 0.252623 47.5552 127.705)" fill="white"/>
<rect width="3.58525" height="25.1882" transform="matrix(0.269927 -0.962881 0.967565 0.252623 47.5552 127.705)" fill="white"/>
<rect width="3.58525" height="25.1882" transform="matrix(0.269927 -0.962881 0.967565 0.252623 47.5552 127.705)" fill="white"/>
<rect width="3.51463" height="25.6943" transform="matrix(0.967565 0.252623 -0.269927 0.962881 395.505 19.8116)" fill="white"/>
<rect width="3.51463" height="25.6943" transform="matrix(0.967565 0.252623 -0.269927 0.962881 395.505 19.8116)" fill="white"/>
<rect width="3.51463" height="25.6943" transform="matrix(0.967565 0.252623 -0.269927 0.962881 395.505 19.8116)" fill="white"/>
<rect width="3.58525" height="25.1882" transform="matrix(0.269927 -0.962881 0.967565 0.252623 380.705 31.384)" fill="white"/>
<rect width="3.58525" height="25.1882" transform="matrix(0.269927 -0.962881 0.967565 0.252623 380.705 31.384)" fill="white"/>
<rect width="3.58525" height="25.1882" transform="matrix(0.269927 -0.962881 0.967565 0.252623 380.705 31.384)" fill="white"/>
<rect width="3.51463" height="25.6943" transform="matrix(0.967565 0.252623 -0.269927 0.962881 440.211 50.9153)" fill="white"/>
<rect width="3.51463" height="25.6943" transform="matrix(0.967565 0.252623 -0.269927 0.962881 440.211 50.9153)" fill="white"/>
<rect width="3.51463" height="25.6943" transform="matrix(0.967565 0.252623 -0.269927 0.962881 440.211 50.9153)" fill="white"/>
<rect width="3.58525" height="25.1882" transform="matrix(0.269927 -0.962881 0.967565 0.252623 425.41 62.4877)" fill="white"/>
<rect width="3.58525" height="25.1882" transform="matrix(0.269927 -0.962881 0.967565 0.252623 425.41 62.4877)" fill="white"/>
<rect width="3.58525" height="25.1882" transform="matrix(0.269927 -0.962881 0.967565 0.252623 425.41 62.4877)" fill="white"/>
<rect width="3.51463" height="25.6943" transform="matrix(0.967565 0.252623 -0.269927 0.962881 97.1235 53.9253)" fill="white"/>
<rect width="3.51463" height="25.6943" transform="matrix(0.967565 0.252623 -0.269927 0.962881 97.1235 53.9253)" fill="white"/>
<rect width="3.51463" height="25.6943" transform="matrix(0.967565 0.252623 -0.269927 0.962881 97.1235 53.9253)" fill="white"/>
<rect width="3.58525" height="25.1882" transform="matrix(0.269927 -0.962881 0.967565 0.252623 82.3228 65.4978)" fill="white"/>
<rect width="3.58525" height="25.1882" transform="matrix(0.269927 -0.962881 0.967565 0.252623 82.3228 65.4978)" fill="white"/>
<rect width="3.58525" height="25.1882" transform="matrix(0.269927 -0.962881 0.967565 0.252623 82.3228 65.4978)" fill="white"/>
<rect width="3.51463" height="25.6943" transform="matrix(0.967565 0.252623 -0.269927 0.962881 204.704 28.8116)" fill="white"/>
<rect width="3.51463" height="25.6943" transform="matrix(0.967565 0.252623 -0.269927 0.962881 204.704 28.8116)" fill="white"/>
<rect width="3.51463" height="25.6943" transform="matrix(0.967565 0.252623 -0.269927 0.962881 204.704 28.8116)" fill="white"/>
<rect width="3.58525" height="25.1882" transform="matrix(0.269927 -0.962881 0.967565 0.252623 189.903 40.384)" fill="white"/>
<rect width="3.58525" height="25.1882" transform="matrix(0.269927 -0.962881 0.967565 0.252623 189.903 40.384)" fill="white"/>
<rect width="3.58525" height="25.1882" transform="matrix(0.269927 -0.962881 0.967565 0.252623 189.903 40.384)" fill="white"/>
<rect width="3.51463" height="25.6943" transform="matrix(0.967565 0.252623 -0.269927 0.962881 128.704 170.812)" fill="white"/>
<rect width="3.51463" height="25.6943" transform="matrix(0.967565 0.252623 -0.269927 0.962881 128.704 170.812)" fill="white"/>
<rect width="3.51463" height="25.6943" transform="matrix(0.967565 0.252623 -0.269927 0.962881 128.704 170.812)" fill="white"/>
<rect width="3.58525" height="25.1882" transform="matrix(0.269927 -0.962881 0.967565 0.252623 113.903 182.384)" fill="white"/>
<rect width="3.58525" height="25.1882" transform="matrix(0.269927 -0.962881 0.967565 0.252623 113.903 182.384)" fill="white"/>
<rect width="3.58525" height="25.1882" transform="matrix(0.269927 -0.962881 0.967565 0.252623 113.903 182.384)" fill="white"/>
<rect width="3.51463" height="25.6943" transform="matrix(0.967565 0.252623 -0.269927 0.962881 194.704 285.812)" fill="white"/>
<rect width="3.51463" height="25.6943" transform="matrix(0.967565 0.252623 -0.269927 0.962881 194.704 285.812)" fill="white"/>
<rect width="3.51463" height="25.6943" transform="matrix(0.967565 0.252623 -0.269927 0.962881 194.704 285.812)" fill="white"/>
<rect width="3.58525" height="25.1882" transform="matrix(0.269927 -0.962881 0.967565 0.252623 179.903 297.384)" fill="white"/>
<rect width="3.58525" height="25.1882" transform="matrix(0.269927 -0.962881 0.967565 0.252623 179.903 297.384)" fill="white"/>
<rect width="3.58525" height="25.1882" transform="matrix(0.269927 -0.962881 0.967565 0.252623 179.903 297.384)" fill="white"/>
<rect width="3.51463" height="25.6943" transform="matrix(0.967565 0.252623 -0.269927 0.962881 194.704 285.812)" fill="white"/>
<rect width="3.51463" height="25.6943" transform="matrix(0.967565 0.252623 -0.269927 0.962881 194.704 285.812)" fill="white"/>
<rect width="3.51463" height="25.6943" transform="matrix(0.967565 0.252623 -0.269927 0.962881 194.704 285.812)" fill="white"/>
<rect width="3.58525" height="25.1882" transform="matrix(0.269927 -0.962881 0.967565 0.252623 179.903 297.384)" fill="white"/>
<rect width="3.58525" height="25.1882" transform="matrix(0.269927 -0.962881 0.967565 0.252623 179.903 297.384)" fill="white"/>
<rect width="3.58525" height="25.1882" transform="matrix(0.269927 -0.962881 0.967565 0.252623 179.903 297.384)" fill="white"/>
<rect width="3.51463" height="25.6943" transform="matrix(0.967565 0.252623 -0.269927 0.962881 115.704 390.812)" fill="white"/>
<rect width="3.51463" height="25.6943" transform="matrix(0.967565 0.252623 -0.269927 0.962881 115.704 390.812)" fill="white"/>
<rect width="3.51463" height="25.6943" transform="matrix(0.967565 0.252623 -0.269927 0.962881 115.704 390.812)" fill="white"/>
<rect width="3.58525" height="25.1882" transform="matrix(0.269927 -0.962881 0.967565 0.252623 100.903 402.384)" fill="white"/>
<rect width="3.58525" height="25.1882" transform="matrix(0.269927 -0.962881 0.967565 0.252623 100.903 402.384)" fill="white"/>
<rect width="3.58525" height="25.1882" transform="matrix(0.269927 -0.962881 0.967565 0.252623 100.903 402.384)" fill="white"/>
<rect width="3.51463" height="25.6943" transform="matrix(0.967565 0.252623 -0.269927 0.962881 448.704 431.812)" fill="white"/>
<rect width="3.51463" height="25.6943" transform="matrix(0.967565 0.252623 -0.269927 0.962881 448.704 431.812)" fill="white"/>
<rect width="3.51463" height="25.6943" transform="matrix(0.967565 0.252623 -0.269927 0.962881 448.704 431.812)" fill="white"/>
<rect width="3.58525" height="25.1882" transform="matrix(0.269927 -0.962881 0.967565 0.252623 433.903 443.384)" fill="white"/>
<rect width="3.58525" height="25.1882" transform="matrix(0.269927 -0.962881 0.967565 0.252623 433.903 443.384)" fill="white"/>
<rect width="3.58525" height="25.1882" transform="matrix(0.269927 -0.962881 0.967565 0.252623 433.903 443.384)" fill="white"/>
<rect width="3.51463" height="25.6943" transform="matrix(0.967565 0.252623 -0.269927 0.962881 496.704 315.812)" fill="white"/>
<rect width="3.51463" height="25.6943" transform="matrix(0.967565 0.252623 -0.269927 0.962881 496.704 315.812)" fill="white"/>
<rect width="3.51463" height="25.6943" transform="matrix(0.967565 0.252623 -0.269927 0.962881 496.704 315.812)" fill="white"/>
<rect width="3.58525" height="25.1882" transform="matrix(0.269927 -0.962881 0.967565 0.252623 481.903 327.384)" fill="white"/>
<rect width="3.58525" height="25.1882" transform="matrix(0.269927 -0.962881 0.967565 0.252623 481.903 327.384)" fill="white"/>
<rect width="3.58525" height="25.1882" transform="matrix(0.269927 -0.962881 0.967565 0.252623 481.903 327.384)" fill="white"/>
<rect width="3.51463" height="25.6943" transform="matrix(0.967565 0.252623 -0.269927 0.962881 496.704 315.812)" fill="white"/>
<rect width="3.51463" height="25.6943" transform="matrix(0.967565 0.252623 -0.269927 0.962881 496.704 315.812)" fill="white"/>
<rect width="3.51463" height="25.6943" transform="matrix(0.967565 0.252623 -0.269927 0.962881 496.704 315.812)" fill="white"/>
<rect width="3.58525" height="25.1882" transform="matrix(0.269927 -0.962881 0.967565 0.252623 481.903 327.384)" fill="white"/>
<rect width="3.58525" height="25.1882" transform="matrix(0.269927 -0.962881 0.967565 0.252623 481.903 327.384)" fill="white"/>
<rect width="3.58525" height="25.1882" transform="matrix(0.269927 -0.962881 0.967565 0.252623 481.903 327.384)" fill="white"/>
<rect width="3.51463" height="25.6943" transform="matrix(0.967565 0.252623 -0.269927 0.962881 343.704 442.812)" fill="white"/>
<rect width="3.51463" height="25.6943" transform="matrix(0.967565 0.252623 -0.269927 0.962881 343.704 442.812)" fill="white"/>
<rect width="3.51463" height="25.6943" transform="matrix(0.967565 0.252623 -0.269927 0.962881 343.704 442.812)" fill="white"/>
<rect width="3.58525" height="25.1882" transform="matrix(0.269927 -0.962881 0.967565 0.252623 328.903 454.384)" fill="white"/>
<rect width="3.58525" height="25.1882" transform="matrix(0.269927 -0.962881 0.967565 0.252623 328.903 454.384)" fill="white"/>
<rect width="3.58525" height="25.1882" transform="matrix(0.269927 -0.962881 0.967565 0.252623 328.903 454.384)" fill="white"/>
<rect width="3.51463" height="25.6943" transform="matrix(0.967565 0.252623 -0.269927 0.962881 191.732 126.166)" fill="white"/>
<rect width="3.51463" height="25.6943" transform="matrix(0.967565 0.252623 -0.269927 0.962881 191.732 126.166)" fill="white"/>
<rect width="3.51463" height="25.6943" transform="matrix(0.967565 0.252623 -0.269927 0.962881 191.732 126.166)" fill="white"/>
<rect width="3.58525" height="25.1882" transform="matrix(0.269927 -0.962881 0.967565 0.252623 176.932 137.739)" fill="white"/>
<rect width="3.58525" height="25.1882" transform="matrix(0.269927 -0.962881 0.967565 0.252623 176.932 137.739)" fill="white"/>
<rect width="3.58525" height="25.1882" transform="matrix(0.269927 -0.962881 0.967565 0.252623 176.932 137.739)" fill="white"/>
<rect width="3.51463" height="25.6943" transform="matrix(0.967565 0.252623 -0.269927 0.962881 233.319 88.039)" fill="white"/>
<rect width="3.51463" height="25.6943" transform="matrix(0.967565 0.252623 -0.269927 0.962881 233.319 88.039)" fill="white"/>
<rect width="3.51463" height="25.6943" transform="matrix(0.967565 0.252623 -0.269927 0.962881 233.319 88.039)" fill="white"/>
<rect width="3.58525" height="25.1882" transform="matrix(0.269927 -0.962881 0.967565 0.252623 218.518 99.6115)" fill="white"/>
<rect width="3.58525" height="25.1882" transform="matrix(0.269927 -0.962881 0.967565 0.252623 218.518 99.6115)" fill="white"/>
<rect width="3.58525" height="25.1882" transform="matrix(0.269927 -0.962881 0.967565 0.252623 218.518 99.6115)" fill="white"/>
<rect width="3.51463" height="25.6943" transform="matrix(0.967565 0.252623 -0.269927 0.962881 599.278 34.8618)" fill="white"/>
<rect width="3.51463" height="25.6943" transform="matrix(0.967565 0.252623 -0.269927 0.962881 599.278 34.8618)" fill="white"/>
<rect width="3.51463" height="25.6943" transform="matrix(0.967565 0.252623 -0.269927 0.962881 599.278 34.8618)" fill="white"/>
<rect width="3.58525" height="25.1882" transform="matrix(0.269927 -0.962881 0.967565 0.252623 584.478 46.4342)" fill="white"/>
<rect width="3.58525" height="25.1882" transform="matrix(0.269927 -0.962881 0.967565 0.252623 584.478 46.4342)" fill="white"/>
<rect width="3.58525" height="25.1882" transform="matrix(0.269927 -0.962881 0.967565 0.252623 584.478 46.4342)" fill="white"/>
<rect width="3.51463" height="25.6943" transform="matrix(0.967565 0.252623 -0.269927 0.962881 602.397 178.34)" fill="white"/>
<rect width="3.51463" height="25.6943" transform="matrix(0.967565 0.252623 -0.269927 0.962881 602.397 178.34)" fill="white"/>
<rect width="3.51463" height="25.6943" transform="matrix(0.967565 0.252623 -0.269927 0.962881 602.397 178.34)" fill="white"/>
<rect width="3.58525" height="25.1882" transform="matrix(0.269927 -0.962881 0.967565 0.252623 587.597 189.912)" fill="white"/>
<rect width="3.58525" height="25.1882" transform="matrix(0.269927 -0.962881 0.967565 0.252623 587.597 189.912)" fill="white"/>
<rect width="3.58525" height="25.1882" transform="matrix(0.269927 -0.962881 0.967565 0.252623 587.597 189.912)" fill="white"/>
<rect width="3.51463" height="25.6943" transform="matrix(0.967565 0.252623 -0.269927 0.962881 346.642 163.29)" fill="white"/>
<rect width="3.51463" height="25.6943" transform="matrix(0.967565 0.252623 -0.269927 0.962881 346.642 163.29)" fill="white"/>
<rect width="3.51463" height="25.6943" transform="matrix(0.967565 0.252623 -0.269927 0.962881 346.642 163.29)" fill="white"/>
<rect width="3.58525" height="25.1882" transform="matrix(0.269927 -0.962881 0.967565 0.252623 331.841 174.862)" fill="white"/>
<rect width="3.58525" height="25.1882" transform="matrix(0.269927 -0.962881 0.967565 0.252623 331.841 174.862)" fill="white"/>
<rect width="3.58525" height="25.1882" transform="matrix(0.269927 -0.962881 0.967565 0.252623 331.841 174.862)" fill="white"/>
<rect width="3.51463" height="25.6943" transform="matrix(0.967565 0.252623 -0.269927 0.962881 283.222 201.417)" fill="white"/>
<rect width="3.51463" height="25.6943" transform="matrix(0.967565 0.252623 -0.269927 0.962881 283.222 201.417)" fill="white"/>
<rect width="3.51463" height="25.6943" transform="matrix(0.967565 0.252623 -0.269927 0.962881 283.222 201.417)" fill="white"/>
<rect width="3.58525" height="25.1882" transform="matrix(0.269927 -0.962881 0.967565 0.252623 268.421 212.989)" fill="white"/>
<rect width="3.58525" height="25.1882" transform="matrix(0.269927 -0.962881 0.967565 0.252623 268.421 212.989)" fill="white"/>
<rect width="3.58525" height="25.1882" transform="matrix(0.269927 -0.962881 0.967565 0.252623 268.421 212.989)" fill="white"/>
<rect width="3.51463" height="25.6943" transform="matrix(0.967565 0.252623 -0.269927 0.962881 64.894 251.584)" fill="white"/>
<rect width="3.51463" height="25.6943" transform="matrix(0.967565 0.252623 -0.269927 0.962881 64.894 251.584)" fill="white"/>
<rect width="3.51463" height="25.6943" transform="matrix(0.967565 0.252623 -0.269927 0.962881 64.894 251.584)" fill="white"/>
<rect width="3.58525" height="25.1882" transform="matrix(0.269927 -0.962881 0.967565 0.252623 50.0933 263.157)" fill="white"/>
<rect width="3.58525" height="25.1882" transform="matrix(0.269927 -0.962881 0.967565 0.252623 50.0933 263.157)" fill="white"/>
<rect width="3.58525" height="25.1882" transform="matrix(0.269927 -0.962881 0.967565 0.252623 50.0933 263.157)" fill="white"/>
<rect width="3.51463" height="25.6943" transform="matrix(0.967565 0.252623 -0.269927 0.962881 100.242 288.708)" fill="white"/>
<rect width="3.51463" height="25.6943" transform="matrix(0.967565 0.252623 -0.269927 0.962881 100.242 288.708)" fill="white"/>
<rect width="3.51463" height="25.6943" transform="matrix(0.967565 0.252623 -0.269927 0.962881 100.242 288.708)" fill="white"/>
<rect width="3.58525" height="25.1882" transform="matrix(0.269927 -0.962881 0.967565 0.252623 85.4414 300.28)" fill="white"/>
<rect width="3.58525" height="25.1882" transform="matrix(0.269927 -0.962881 0.967565 0.252623 85.4414 300.28)" fill="white"/>
<rect width="3.58525" height="25.1882" transform="matrix(0.269927 -0.962881 0.967565 0.252623 85.4414 300.28)" fill="white"/>
<rect width="3.51463" height="25.6943" transform="matrix(0.967565 0.252623 -0.269927 0.962881 33.7041 28.8417)" fill="white"/>
<rect width="3.51463" height="25.6943" transform="matrix(0.967565 0.252623 -0.269927 0.962881 33.7041 28.8417)" fill="white"/>
<rect width="3.51463" height="25.6943" transform="matrix(0.967565 0.252623 -0.269927 0.962881 33.7041 28.8417)" fill="white"/>
<rect width="3.58525" height="25.1882" transform="matrix(0.269927 -0.962881 0.967565 0.252623 18.9033 40.4141)" fill="white"/>
<rect width="3.58525" height="25.1882" transform="matrix(0.269927 -0.962881 0.967565 0.252623 18.9033 40.4141)" fill="white"/>
<rect width="3.58525" height="25.1882" transform="matrix(0.269927 -0.962881 0.967565 0.252623 18.9033 40.4141)" fill="white"/>
<rect width="3.51463" height="25.6943" transform="matrix(-0.967565 -0.252623 0.269927 -0.962881 573.645 371.867)" fill="white"/>
<rect width="3.51463" height="25.6943" transform="matrix(-0.967565 -0.252623 0.269927 -0.962881 573.645 371.867)" fill="white"/>
<rect width="3.51463" height="25.6943" transform="matrix(-0.967565 -0.252623 0.269927 -0.962881 573.645 371.867)" fill="white"/>
<rect width="3.58525" height="25.1882" transform="matrix(-0.269927 0.962881 -0.967565 -0.252623 588.445 360.295)" fill="white"/>
<rect width="3.58525" height="25.1882" transform="matrix(-0.269927 0.962881 -0.967565 -0.252623 588.445 360.295)" fill="white"/>
<rect width="3.58525" height="25.1882" transform="matrix(-0.269927 0.962881 -0.967565 -0.252623 588.445 360.295)" fill="white"/>
<rect width="3.51463" height="25.6943" transform="matrix(-0.967565 -0.252623 0.269927 -0.962881 240.495 468.188)" fill="white"/>
<rect width="3.51463" height="25.6943" transform="matrix(-0.967565 -0.252623 0.269927 -0.962881 240.495 468.188)" fill="white"/>
<rect width="3.51463" height="25.6943" transform="matrix(-0.967565 -0.252623 0.269927 -0.962881 240.495 468.188)" fill="white"/>
<rect width="3.58525" height="25.1882" transform="matrix(-0.269927 0.962881 -0.967565 -0.252623 255.295 456.616)" fill="white"/>
<rect width="3.58525" height="25.1882" transform="matrix(-0.269927 0.962881 -0.967565 -0.252623 255.295 456.616)" fill="white"/>
<rect width="3.58525" height="25.1882" transform="matrix(-0.269927 0.962881 -0.967565 -0.252623 255.295 456.616)" fill="white"/>
<rect width="3.51463" height="25.6943" transform="matrix(-0.967565 -0.252623 0.269927 -0.962881 195.789 437.085)" fill="white"/>
<rect width="3.51463" height="25.6943" transform="matrix(-0.967565 -0.252623 0.269927 -0.962881 195.789 437.085)" fill="white"/>
<rect width="3.51463" height="25.6943" transform="matrix(-0.967565 -0.252623 0.269927 -0.962881 195.789 437.085)" fill="white"/>
<rect width="3.58525" height="25.1882" transform="matrix(-0.269927 0.962881 -0.967565 -0.252623 210.589 425.512)" fill="white"/>
<rect width="3.58525" height="25.1882" transform="matrix(-0.269927 0.962881 -0.967565 -0.252623 210.589 425.512)" fill="white"/>
<rect width="3.58525" height="25.1882" transform="matrix(-0.269927 0.962881 -0.967565 -0.252623 210.589 425.512)" fill="white"/>
<rect width="3.51463" height="25.6943" transform="matrix(-0.967565 -0.252623 0.269927 -0.962881 538.877 434.075)" fill="white"/>
<rect width="3.51463" height="25.6943" transform="matrix(-0.967565 -0.252623 0.269927 -0.962881 538.877 434.075)" fill="white"/>
<rect width="3.51463" height="25.6943" transform="matrix(-0.967565 -0.252623 0.269927 -0.962881 538.877 434.075)" fill="white"/>
<rect width="3.58525" height="25.1882" transform="matrix(-0.269927 0.962881 -0.967565 -0.252623 553.678 422.502)" fill="white"/>
<rect width="3.58525" height="25.1882" transform="matrix(-0.269927 0.962881 -0.967565 -0.252623 553.678 422.502)" fill="white"/>
<rect width="3.58525" height="25.1882" transform="matrix(-0.269927 0.962881 -0.967565 -0.252623 553.678 422.502)" fill="white"/>
<rect width="3.51463" height="25.6943" transform="matrix(-0.967565 -0.252623 0.269927 -0.962881 444.268 361.834)" fill="white"/>
<rect width="3.51463" height="25.6943" transform="matrix(-0.967565 -0.252623 0.269927 -0.962881 444.268 361.834)" fill="white"/>
<rect width="3.51463" height="25.6943" transform="matrix(-0.967565 -0.252623 0.269927 -0.962881 444.268 361.834)" fill="white"/>
<rect width="3.58525" height="25.1882" transform="matrix(-0.269927 0.962881 -0.967565 -0.252623 459.068 350.262)" fill="white"/>
<rect width="3.58525" height="25.1882" transform="matrix(-0.269927 0.962881 -0.967565 -0.252623 459.068 350.262)" fill="white"/>
<rect width="3.58525" height="25.1882" transform="matrix(-0.269927 0.962881 -0.967565 -0.252623 459.068 350.262)" fill="white"/>
<rect width="3.51463" height="25.6943" transform="matrix(-0.967565 -0.252623 0.269927 -0.962881 402.682 399.961)" fill="white"/>
<rect width="3.51463" height="25.6943" transform="matrix(-0.967565 -0.252623 0.269927 -0.962881 402.682 399.961)" fill="white"/>
<rect width="3.51463" height="25.6943" transform="matrix(-0.967565 -0.252623 0.269927 -0.962881 402.682 399.961)" fill="white"/>
<rect width="3.58525" height="25.1882" transform="matrix(-0.269927 0.962881 -0.967565 -0.252623 417.482 388.389)" fill="white"/>
<rect width="3.58525" height="25.1882" transform="matrix(-0.269927 0.962881 -0.967565 -0.252623 417.482 388.389)" fill="white"/>
<rect width="3.58525" height="25.1882" transform="matrix(-0.269927 0.962881 -0.967565 -0.252623 417.482 388.389)" fill="white"/>
<rect width="3.51463" height="25.6943" transform="matrix(-0.967565 -0.252623 0.269927 -0.962881 36.7222 453.138)" fill="white"/>
<rect width="3.51463" height="25.6943" transform="matrix(-0.967565 -0.252623 0.269927 -0.962881 36.7222 453.138)" fill="white"/>
<rect width="3.51463" height="25.6943" transform="matrix(-0.967565 -0.252623 0.269927 -0.962881 36.7222 453.138)" fill="white"/>
<rect width="3.58525" height="25.1882" transform="matrix(-0.269927 0.962881 -0.967565 -0.252623 51.5225 441.566)" fill="white"/>
<rect width="3.58525" height="25.1882" transform="matrix(-0.269927 0.962881 -0.967565 -0.252623 51.5225 441.566)" fill="white"/>
<rect width="3.58525" height="25.1882" transform="matrix(-0.269927 0.962881 -0.967565 -0.252623 51.5225 441.566)" fill="white"/>
<rect width="3.51463" height="25.6943" transform="matrix(-0.967565 -0.252623 0.269927 -0.962881 33.603 309.66)" fill="white"/>
<rect width="3.51463" height="25.6943" transform="matrix(-0.967565 -0.252623 0.269927 -0.962881 33.603 309.66)" fill="white"/>
<rect width="3.51463" height="25.6943" transform="matrix(-0.967565 -0.252623 0.269927 -0.962881 33.603 309.66)" fill="white"/>
<rect width="3.58525" height="25.1882" transform="matrix(-0.269927 0.962881 -0.967565 -0.252623 48.4033 298.088)" fill="white"/>
<rect width="3.58525" height="25.1882" transform="matrix(-0.269927 0.962881 -0.967565 -0.252623 48.4033 298.088)" fill="white"/>
<rect width="3.58525" height="25.1882" transform="matrix(-0.269927 0.962881 -0.967565 -0.252623 48.4033 298.088)" fill="white"/>
<rect width="3.51463" height="25.6943" transform="matrix(-0.967565 -0.252623 0.269927 -0.962881 289.359 324.71)" fill="white"/>
<rect width="3.51463" height="25.6943" transform="matrix(-0.967565 -0.252623 0.269927 -0.962881 289.359 324.71)" fill="white"/>
<rect width="3.51463" height="25.6943" transform="matrix(-0.967565 -0.252623 0.269927 -0.962881 289.359 324.71)" fill="white"/>
<rect width="3.58525" height="25.1882" transform="matrix(-0.269927 0.962881 -0.967565 -0.252623 304.159 313.138)" fill="white"/>
<rect width="3.58525" height="25.1882" transform="matrix(-0.269927 0.962881 -0.967565 -0.252623 304.159 313.138)" fill="white"/>
<rect width="3.58525" height="25.1882" transform="matrix(-0.269927 0.962881 -0.967565 -0.252623 304.159 313.138)" fill="white"/>
<rect width="3.51463" height="25.6943" transform="matrix(-0.967565 -0.252623 0.269927 -0.962881 352.778 286.583)" fill="white"/>
<rect width="3.51463" height="25.6943" transform="matrix(-0.967565 -0.252623 0.269927 -0.962881 352.778 286.583)" fill="white"/>
<rect width="3.51463" height="25.6943" transform="matrix(-0.967565 -0.252623 0.269927 -0.962881 352.778 286.583)" fill="white"/>
<rect width="3.58525" height="25.1882" transform="matrix(-0.269927 0.962881 -0.967565 -0.252623 367.578 275.011)" fill="white"/>
<rect width="3.58525" height="25.1882" transform="matrix(-0.269927 0.962881 -0.967565 -0.252623 367.578 275.011)" fill="white"/>
<rect width="3.58525" height="25.1882" transform="matrix(-0.269927 0.962881 -0.967565 -0.252623 367.578 275.011)" fill="white"/>
<rect width="3.51463" height="25.6943" transform="matrix(-0.967565 -0.252623 0.269927 -0.962881 435.603 296.292)" fill="white"/>
<rect width="3.51463" height="25.6943" transform="matrix(-0.967565 -0.252623 0.269927 -0.962881 435.603 296.292)" fill="white"/>
<rect width="3.51463" height="25.6943" transform="matrix(-0.967565 -0.252623 0.269927 -0.962881 435.603 296.292)" fill="white"/>
<rect width="3.58525" height="25.1882" transform="matrix(-0.269927 0.962881 -0.967565 -0.252623 450.403 284.72)" fill="white"/>
<rect width="3.58525" height="25.1882" transform="matrix(-0.269927 0.962881 -0.967565 -0.252623 450.403 284.72)" fill="white"/>
<rect width="3.58525" height="25.1882" transform="matrix(-0.269927 0.962881 -0.967565 -0.252623 450.403 284.72)" fill="white"/>
<rect width="3.51463" height="25.6943" transform="matrix(-0.967565 -0.252623 0.269927 -0.962881 430.603 198.292)" fill="white"/>
<rect width="3.51463" height="25.6943" transform="matrix(-0.967565 -0.252623 0.269927 -0.962881 430.603 198.292)" fill="white"/>
<rect width="3.51463" height="25.6943" transform="matrix(-0.967565 -0.252623 0.269927 -0.962881 430.603 198.292)" fill="white"/>
<rect width="3.58525" height="25.1882" transform="matrix(-0.269927 0.962881 -0.967565 -0.252623 445.403 186.72)" fill="white"/>
<rect width="3.58525" height="25.1882" transform="matrix(-0.269927 0.962881 -0.967565 -0.252623 445.403 186.72)" fill="white"/>
<rect width="3.58525" height="25.1882" transform="matrix(-0.269927 0.962881 -0.967565 -0.252623 445.403 186.72)" fill="white"/>
<rect width="3.51463" height="25.6943" transform="matrix(-0.967565 -0.252623 0.269927 -0.962881 513.603 85.2922)" fill="white"/>
<rect width="3.51463" height="25.6943" transform="matrix(-0.967565 -0.252623 0.269927 -0.962881 513.603 85.2922)" fill="white"/>
<rect width="3.51463" height="25.6943" transform="matrix(-0.967565 -0.252623 0.269927 -0.962881 513.603 85.2922)" fill="white"/>
<rect width="3.58525" height="25.1882" transform="matrix(-0.269927 0.962881 -0.967565 -0.252623 528.403 73.7197)" fill="white"/>
<rect width="3.58525" height="25.1882" transform="matrix(-0.269927 0.962881 -0.967565 -0.252623 528.403 73.7197)" fill="white"/>
<rect width="3.58525" height="25.1882" transform="matrix(-0.269927 0.962881 -0.967565 -0.252623 528.403 73.7197)" fill="white"/>
<rect width="3.51463" height="25.6943" transform="matrix(-0.967565 -0.252623 0.269927 -0.962881 297.603 59.2922)" fill="white"/>
<rect width="3.51463" height="25.6943" transform="matrix(-0.967565 -0.252623 0.269927 -0.962881 297.603 59.2922)" fill="white"/>
<rect width="3.51463" height="25.6943" transform="matrix(-0.967565 -0.252623 0.269927 -0.962881 297.603 59.2922)" fill="white"/>
<rect width="3.58525" height="25.1882" transform="matrix(-0.269927 0.962881 -0.967565 -0.252623 312.403 47.7197)" fill="white"/>
<rect width="3.58525" height="25.1882" transform="matrix(-0.269927 0.962881 -0.967565 -0.252623 312.403 47.7197)" fill="white"/>
<rect width="3.58525" height="25.1882" transform="matrix(-0.269927 0.962881 -0.967565 -0.252623 312.403 47.7197)" fill="white"/>
<rect width="3.51463" height="25.6943" transform="matrix(-0.967565 -0.252623 0.269927 -0.962881 571.107 236.416)" fill="white"/>
<rect width="3.51463" height="25.6943" transform="matrix(-0.967565 -0.252623 0.269927 -0.962881 571.107 236.416)" fill="white"/>
<rect width="3.51463" height="25.6943" transform="matrix(-0.967565 -0.252623 0.269927 -0.962881 571.107 236.416)" fill="white"/>
<rect width="3.58525" height="25.1882" transform="matrix(-0.269927 0.962881 -0.967565 -0.252623 585.907 224.844)" fill="white"/>
<rect width="3.58525" height="25.1882" transform="matrix(-0.269927 0.962881 -0.967565 -0.252623 585.907 224.844)" fill="white"/>
<rect width="3.58525" height="25.1882" transform="matrix(-0.269927 0.962881 -0.967565 -0.252623 585.907 224.844)" fill="white"/>
<rect width="3.51463" height="25.6943" transform="matrix(-0.967565 -0.252623 0.269927 -0.962881 535.758 199.292)" fill="white"/>
<rect width="3.51463" height="25.6943" transform="matrix(-0.967565 -0.252623 0.269927 -0.962881 535.758 199.292)" fill="white"/>
<rect width="3.51463" height="25.6943" transform="matrix(-0.967565 -0.252623 0.269927 -0.962881 535.758 199.292)" fill="white"/>
<rect width="3.58525" height="25.1882" transform="matrix(-0.269927 0.962881 -0.967565 -0.252623 550.559 187.72)" fill="white"/>
<rect width="3.58525" height="25.1882" transform="matrix(-0.269927 0.962881 -0.967565 -0.252623 550.559 187.72)" fill="white"/>
<rect width="3.58525" height="25.1882" transform="matrix(-0.269927 0.962881 -0.967565 -0.252623 550.559 187.72)" fill="white"/>
<rect width="3.51463" height="25.6943" transform="matrix(-0.967565 -0.252623 0.269927 -0.962881 602.297 459.158)" fill="white"/>
<rect width="3.51463" height="25.6943" transform="matrix(-0.967565 -0.252623 0.269927 -0.962881 602.297 459.158)" fill="white"/>
<rect width="3.51463" height="25.6943" transform="matrix(-0.967565 -0.252623 0.269927 -0.962881 602.297 459.158)" fill="white"/>
<rect width="3.58525" height="25.1882" transform="matrix(-0.269927 0.962881 -0.967565 -0.252623 617.097 447.586)" fill="white"/>
<rect width="3.58525" height="25.1882" transform="matrix(-0.269927 0.962881 -0.967565 -0.252623 617.097 447.586)" fill="white"/>
<rect width="3.58525" height="25.1882" transform="matrix(-0.269927 0.962881 -0.967565 -0.252623 617.097 447.586)" fill="white"/>
</svg>
