<svg width="640" height="480" viewBox="0 0 640 480" fill="none" xmlns="http://www.w3.org/2000/svg">
<rect width="640" height="480" rx="32" fill="#FFF7DA"/>
<path d="M494.689 205.29C494.689 249.991 455.274 286.368 406.473 286.368C357.673 286.368 318.258 249.991 318.258 205.29C318.258 160.589 357.673 124.212 406.473 124.212C455.274 124.212 494.689 160.589 494.689 205.29Z" fill="#FFC877" stroke="#FFD495" stroke-width="2"/>
<rect x="512.439" y="164.217" width="8.78944" height="85.1681" transform="rotate(-107.535 512.439 164.217)" fill="#FFC877" stroke="#FFD595" stroke-width="2"/>
<rect x="447.448" y="114.773" width="8.78944" height="85.1681" transform="rotate(-154.067 447.448 114.773)" fill="#FFC877" stroke="#FFD595" stroke-width="2"/>
<rect x="368.006" y="113.212" width="8.78944" height="85.1681" transform="rotate(167.086 368.006 113.212)" fill="#FFC877" stroke="#FFD595" stroke-width="2"/>
<rect x="307.298" y="156.596" width="8.78944" height="85.1681" transform="rotate(127.794 307.298 156.596)" fill="#FFC877" stroke="#FFD595" stroke-width="2"/>
<rect x="296.965" y="219.317" width="8.78944" height="85.1681" transform="rotate(85.3487 296.965 219.317)" fill="#FFC877" stroke="#FFD595" stroke-width="2"/>
<rect x="326.054" y="280.413" width="8.78944" height="85.1681" transform="rotate(47.1449 326.054 280.413)" fill="#FFC877" stroke="#FFD595" stroke-width="2"/>
<rect x="399.478" y="303.037" width="8.78944" height="85.1681" transform="rotate(2.17632 399.478 303.037)" fill="#FFC877" stroke="#FFD595" stroke-width="2"/>
<rect x="478.579" y="286.902" width="8.78944" height="85.1681" transform="rotate(-31.0223 478.579 286.902)" fill="#FFC877" stroke="#FFD595" stroke-width="2"/>
<rect x="509.408" y="237.759" width="8.78944" height="85.1681" transform="rotate(-76.8134 509.408 237.759)" fill="#FFC877" stroke="#FFD595" stroke-width="2"/>
</svg>
